<svg width="35" height="33" viewBox="0 0 35 33" fill="none" xmlns="http://www.w3.org/2000/svg">
<path d="M9 23.375C9 20.625 14.6667 19.1125 17.5 19.1125C20.3333 19.1125 26 20.625 26 23.375V24.75H9M21.75 12.375C21.75 13.469 21.3022 14.5182 20.5052 15.2918C19.7082 16.0654 18.6272 16.5 17.5 16.5C16.3728 16.5 15.2918 16.0654 14.4948 15.2918C13.6978 14.5182 13.25 13.469 13.25 12.375C13.25 11.281 13.6978 10.2318 14.4948 9.45818C15.2918 8.6846 16.3728 8.25 17.5 8.25C18.6272 8.25 19.7082 8.6846 20.5052 9.45818C21.3022 10.2318 21.75 11.281 21.75 12.375ZM4.75 6.875V26.125C4.75 26.8543 5.04851 27.5538 5.57986 28.0695C6.11122 28.5853 6.83189 28.875 7.58333 28.875H27.4167C28.1681 28.875 28.8888 28.5853 29.4201 28.0695C29.9515 27.5538 30.25 26.8543 30.25 26.125V6.875C30.25 6.14565 29.9515 5.44618 29.4201 4.93046C28.8888 4.41473 28.1681 4.125 27.4167 4.125H7.58333C6.83189 4.125 6.11122 4.41473 5.57986 4.93046C5.04851 5.44618 4.75 6.14565 4.75 6.875Z" fill="#D4D4D4"/>
</svg>
