<svg width="31" height="31" viewBox="0 0 31 31" fill="none" xmlns="http://www.w3.org/2000/svg">
<path d="M26.6406 3.39062H4.35938C3.82354 3.39062 3.39062 3.82354 3.39062 4.35938V26.6406C3.39062 27.1765 3.82354 27.6094 4.35938 27.6094H26.6406C27.1765 27.6094 27.6094 27.1765 27.6094 26.6406V4.35938C27.6094 3.82354 27.1765 3.39062 26.6406 3.39062ZM11.1406 22.5234C11.1406 22.6566 11.0316 22.7656 10.8984 22.7656H8.47656C8.34336 22.7656 8.23438 22.6566 8.23438 22.5234V8.47656C8.23438 8.34336 8.34336 8.23438 8.47656 8.23438H10.8984C11.0316 8.23438 11.1406 8.34336 11.1406 8.47656V22.5234ZM16.9531 14.0469C16.9531 14.1801 16.8441 14.2891 16.7109 14.2891H14.2891C14.1559 14.2891 14.0469 14.1801 14.0469 14.0469V8.47656C14.0469 8.34336 14.1559 8.23438 14.2891 8.23438H16.7109C16.8441 8.23438 16.9531 8.34336 16.9531 8.47656V14.0469ZM22.7656 16.2266C22.7656 16.3598 22.6566 16.4688 22.5234 16.4688H20.1016C19.9684 16.4688 19.8594 16.3598 19.8594 16.2266V8.47656C19.8594 8.34336 19.9684 8.23438 20.1016 8.23438H22.5234C22.6566 8.23438 22.7656 8.34336 22.7656 8.47656V16.2266Z" fill="#D4D4D4"/>
</svg>
