<svg width="29" height="29" viewBox="0 0 29 29" fill="none" xmlns="http://www.w3.org/2000/svg">
<path d="M26.5832 16.916H16.9165V26.5827H26.5832V16.916ZM7.854 2.41602L13.2915 12.0827H2.4165L7.854 2.41602ZM21.7498 12.0827C23.0317 12.0827 24.2611 11.5735 25.1675 10.667C26.0739 9.76061 26.5832 8.53123 26.5832 7.24935C26.5832 5.96747 26.0739 4.73809 25.1675 3.83167C24.2611 2.92524 23.0317 2.41602 21.7498 2.41602C20.468 2.41602 19.2386 2.92524 18.3322 3.83167C17.4257 4.73809 16.9165 5.96747 16.9165 7.24935C16.9165 8.53123 17.4257 9.76061 18.3322 10.667C19.2386 11.5735 20.468 12.0827 21.7498 12.0827Z" fill="#D4D4D4" stroke="#D4D4D4" stroke-width="2" stroke-linejoin="round"/>
<path d="M2.4165 16.916L12.0832 26.5827M12.0832 16.916L2.4165 26.5827" stroke="#D4D4D4" stroke-width="2" stroke-linecap="round" stroke-linejoin="round"/>
</svg>
